{
  "asset": {
    "version": "2.0",
    "generator": "rts-game scripts/build-carrier-model.mjs",
    "extras": {
      "coordinateSystem": "right-handed, Y-up, +Z bow",
      "assetId": "carrier-near-v1"
    }
  },
  "scene": 0,
  "scenes": [
    {
      "name": "carrier-near-v1",
      "nodes": [
        0,
        1,
        2,
        3,
        4,
        5,
        6,
        7,
        8,
        9
      ]
    }
  ],
  "nodes": [
    {
      "name": "carrier-primary-hull",
      "mesh": 0
    },
    {
      "name": "carrier-command-spine",
      "mesh": 1
    },
    {
      "name": "carrier-prow-deck",
      "mesh": 2
    },
    {
      "name": "carrier-aft-deck",
      "mesh": 3
    },
    {
      "name": "carrier-left-hangar",
      "mesh": 4
    },
    {
      "name": "carrier-right-hangar",
      "mesh": 5
    },
    {
      "name": "carrier-hangar-doors",
      "mesh": 6
    },
    {
      "name": "carrier-launch-brows",
      "mesh": 7
    },
    {
      "name": "carrier-outer-rails",
      "mesh": 8
    },
    {
      "name": "carrier-functional-panels",
      "mesh": 9
    }
  ],
  "meshes": [
    {
      "name": "carrier-primary-hull",
      "primitives": [
        {
          "attributes": {
            "POSITION": 0,
            "NORMAL": 1,
            "TEXCOORD_0": 2
          },
          "material": 0,
          "mode": 4
        }
      ],
      "extras": {
        "semantic": "carrier-hull"
      }
    },
    {
      "name": "carrier-command-spine",
      "primitives": [
        {
          "attributes": {
            "POSITION": 3,
            "NORMAL": 4,
            "TEXCOORD_0": 5
          },
          "material": 1,
          "mode": 4
        }
      ],
      "extras": {
        "semantic": "carrier-armor"
      }
    },
    {
      "name": "carrier-prow-deck",
      "primitives": [
        {
          "attributes": {
            "POSITION": 6,
            "NORMAL": 7,
            "TEXCOORD_0": 8
          },
          "material": 1,
          "mode": 4
        }
      ],
      "extras": {
        "semantic": "carrier-armor"
      }
    },
    {
      "name": "carrier-aft-deck",
      "primitives": [
        {
          "attributes": {
            "POSITION": 9,
            "NORMAL": 10,
            "TEXCOORD_0": 11
          },
          "material": 2,
          "mode": 4
        }
      ],
      "extras": {
        "semantic": "carrier-panel"
      }
    },
    {
      "name": "carrier-left-hangar",
      "primitives": [
        {
          "attributes": {
            "POSITION": 12,
            "NORMAL": 13,
            "TEXCOORD_0": 14
          },
          "material": 1,
          "mode": 4
        }
      ],
      "extras": {
        "semantic": "carrier-armor"
      }
    },
    {
      "name": "carrier-right-hangar",
      "primitives": [
        {
          "attributes": {
            "POSITION": 15,
            "NORMAL": 16,
            "TEXCOORD_0": 17
          },
          "material": 1,
          "mode": 4
        }
      ],
      "extras": {
        "semantic": "carrier-armor"
      }
    },
    {
      "name": "carrier-hangar-doors",
      "primitives": [
        {
          "attributes": {
            "POSITION": 18,
            "NORMAL": 19,
            "TEXCOORD_0": 20
          },
          "material": 2,
          "mode": 4
        }
      ],
      "extras": {
        "semantic": "carrier-panel"
      }
    },
    {
      "name": "carrier-launch-brows",
      "primitives": [
        {
          "attributes": {
            "POSITION": 21,
            "NORMAL": 22,
            "TEXCOORD_0": 23
          },
          "material": 1,
          "mode": 4
        }
      ],
      "extras": {
        "semantic": "carrier-armor"
      }
    },
    {
      "name": "carrier-outer-rails",
      "primitives": [
        {
          "attributes": {
            "POSITION": 24,
            "NORMAL": 25,
            "TEXCOORD_0": 26
          },
          "material": 1,
          "mode": 4
        }
      ],
      "extras": {
        "semantic": "carrier-armor"
      }
    },
    {
      "name": "carrier-functional-panels",
      "primitives": [
        {
          "attributes": {
            "POSITION": 27,
            "NORMAL": 28,
            "TEXCOORD_0": 29
          },
          "material": 2,
          "mode": 4
        }
      ],
      "extras": {
        "semantic": "carrier-panel"
      }
    }
  ],
  "materials": [
    {
      "name": "carrier-hull",
      "pbrMetallicRoughness": {
        "baseColorFactor": [
          0.5,
          0.53,
          0.54,
          1
        ],
        "metallicFactor": 0.78,
        "roughnessFactor": 0.58
      }
    },
    {
      "name": "carrier-armor",
      "pbrMetallicRoughness": {
        "baseColorFactor": [
          0.61,
          0.64,
          0.65,
          1
        ],
        "metallicFactor": 0.84,
        "roughnessFactor": 0.46
      }
    },
    {
      "name": "carrier-panel",
      "pbrMetallicRoughness": {
        "baseColorFactor": [
          0.25,
          0.28,
          0.29,
          1
        ],
        "metallicFactor": 0.6,
        "roughnessFactor": 0.76
      }
    }
  ],
  "buffers": [
    {
      "uri": "carrier-v1.bin",
      "byteLength": 24192
    }
  ],
  "bufferViews": [
    {
      "buffer": 0,
      "byteOffset": 0,
      "byteLength": 1152,
      "target": 34962
    },
    {
      "buffer": 0,
      "byteOffset": 1152,
      "byteLength": 1152,
      "target": 34962
    },
    {
      "buffer": 0,
      "byteOffset": 2304,
      "byteLength": 768,
      "target": 34962
    },
    {
      "buffer": 0,
      "byteOffset": 3072,
      "byteLength": 864,
      "target": 34962
    },
    {
      "buffer": 0,
      "byteOffset": 3936,
      "byteLength": 864,
      "target": 34962
    },
    {
      "buffer": 0,
      "byteOffset": 4800,
      "byteLength": 576,
      "target": 34962
    },
    {
      "buffer": 0,
      "byteOffset": 5376,
      "byteLength": 576,
      "target": 34962
    },
    {
      "buffer": 0,
      "byteOffset": 5952,
      "byteLength": 576,
      "target": 34962
    },
    {
      "buffer": 0,
      "byteOffset": 6528,
      "byteLength": 384,
      "target": 34962
    },
    {
      "buffer": 0,
      "byteOffset": 6912,
      "byteLength": 432,
      "target": 34962
    },
    {
      "buffer": 0,
      "byteOffset": 7344,
      "byteLength": 432,
      "target": 34962
    },
    {
      "buffer": 0,
      "byteOffset": 7776,
      "byteLength": 288,
      "target": 34962
    },
    {
      "buffer": 0,
      "byteOffset": 8064,
      "byteLength": 864,
      "target": 34962
    },
    {
      "buffer": 0,
      "byteOffset": 8928,
      "byteLength": 864,
      "target": 34962
    },
    {
      "buffer": 0,
      "byteOffset": 9792,
      "byteLength": 576,
      "target": 34962
    },
    {
      "buffer": 0,
      "byteOffset": 10368,
      "byteLength": 864,
      "target": 34962
    },
    {
      "buffer": 0,
      "byteOffset": 11232,
      "byteLength": 864,
      "target": 34962
    },
    {
      "buffer": 0,
      "byteOffset": 12096,
      "byteLength": 576,
      "target": 34962
    },
    {
      "buffer": 0,
      "byteOffset": 12672,
      "byteLength": 864,
      "target": 34962
    },
    {
      "buffer": 0,
      "byteOffset": 13536,
      "byteLength": 864,
      "target": 34962
    },
    {
      "buffer": 0,
      "byteOffset": 14400,
      "byteLength": 576,
      "target": 34962
    },
    {
      "buffer": 0,
      "byteOffset": 14976,
      "byteLength": 864,
      "target": 34962
    },
    {
      "buffer": 0,
      "byteOffset": 15840,
      "byteLength": 864,
      "target": 34962
    },
    {
      "buffer": 0,
      "byteOffset": 16704,
      "byteLength": 576,
      "target": 34962
    },
    {
      "buffer": 0,
      "byteOffset": 17280,
      "byteLength": 864,
      "target": 34962
    },
    {
      "buffer": 0,
      "byteOffset": 18144,
      "byteLength": 864,
      "target": 34962
    },
    {
      "buffer": 0,
      "byteOffset": 19008,
      "byteLength": 576,
      "target": 34962
    },
    {
      "buffer": 0,
      "byteOffset": 19584,
      "byteLength": 1728,
      "target": 34962
    },
    {
      "buffer": 0,
      "byteOffset": 21312,
      "byteLength": 1728,
      "target": 34962
    },
    {
      "buffer": 0,
      "byteOffset": 23040,
      "byteLength": 1152,
      "target": 34962
    }
  ],
  "accessors": [
    {
      "bufferView": 0,
      "componentType": 5126,
      "count": 96,
      "type": "VEC3",
      "min": [
        -5.7,
        -2.1,
        -12.4
      ],
      "max": [
        5.7,
        2.05,
        12.4
      ]
    },
    {
      "bufferView": 1,
      "componentType": 5126,
      "count": 96,
      "type": "VEC3"
    },
    {
      "bufferView": 2,
      "componentType": 5126,
      "count": 96,
      "type": "VEC2"
    },
    {
      "bufferView": 3,
      "componentType": 5126,
      "count": 72,
      "type": "VEC3",
      "min": [
        -2.2,
        2.05,
        -10
      ],
      "max": [
        2.2,
        3.35,
        9
      ]
    },
    {
      "bufferView": 4,
      "componentType": 5126,
      "count": 72,
      "type": "VEC3"
    },
    {
      "bufferView": 5,
      "componentType": 5126,
      "count": 72,
      "type": "VEC2"
    },
    {
      "bufferView": 6,
      "componentType": 5126,
      "count": 48,
      "type": "VEC3",
      "min": [
        -4.3,
        2.05,
        5
      ],
      "max": [
        4.3,
        2.85,
        12.75
      ]
    },
    {
      "bufferView": 7,
      "componentType": 5126,
      "count": 48,
      "type": "VEC3"
    },
    {
      "bufferView": 8,
      "componentType": 5126,
      "count": 48,
      "type": "VEC2"
    },
    {
      "bufferView": 9,
      "componentType": 5126,
      "count": 36,
      "type": "VEC3",
      "min": [
        -4.3,
        2.05,
        -11
      ],
      "max": [
        4.3,
        2.52,
        -5.5
      ]
    },
    {
      "bufferView": 10,
      "componentType": 5126,
      "count": 36,
      "type": "VEC3"
    },
    {
      "bufferView": 11,
      "componentType": 5126,
      "count": 36,
      "type": "VEC2"
    },
    {
      "bufferView": 12,
      "componentType": 5126,
      "count": 72,
      "type": "VEC3",
      "min": [
        -9.2,
        -1.6,
        -10.2
      ],
      "max": [
        -4.8,
        1.7,
        8.2
      ]
    },
    {
      "bufferView": 13,
      "componentType": 5126,
      "count": 72,
      "type": "VEC3"
    },
    {
      "bufferView": 14,
      "componentType": 5126,
      "count": 72,
      "type": "VEC2"
    },
    {
      "bufferView": 15,
      "componentType": 5126,
      "count": 72,
      "type": "VEC3",
      "min": [
        4.8,
        -1.6,
        -10.2
      ],
      "max": [
        9.2,
        1.7,
        8.2
      ]
    },
    {
      "bufferView": 16,
      "componentType": 5126,
      "count": 72,
      "type": "VEC3"
    },
    {
      "bufferView": 17,
      "componentType": 5126,
      "count": 72,
      "type": "VEC2"
    },
    {
      "bufferView": 18,
      "componentType": 5126,
      "count": 72,
      "type": "VEC3",
      "min": [
        -8.65,
        1.7,
        -7.6
      ],
      "max": [
        8.65,
        1.94,
        4.8
      ]
    },
    {
      "bufferView": 19,
      "componentType": 5126,
      "count": 72,
      "type": "VEC3"
    },
    {
      "bufferView": 20,
      "componentType": 5126,
      "count": 72,
      "type": "VEC2"
    },
    {
      "bufferView": 21,
      "componentType": 5126,
      "count": 72,
      "type": "VEC3",
      "min": [
        -8.9,
        1.94,
        4.1
      ],
      "max": [
        8.9,
        2.4,
        7.5
      ]
    },
    {
      "bufferView": 22,
      "componentType": 5126,
      "count": 72,
      "type": "VEC3"
    },
    {
      "bufferView": 23,
      "componentType": 5126,
      "count": 72,
      "type": "VEC2"
    },
    {
      "bufferView": 24,
      "componentType": 5126,
      "count": 72,
      "type": "VEC3",
      "min": [
        -9.6,
        -0.2,
        -9
      ],
      "max": [
        9.6,
        1.15,
        5.2
      ]
    },
    {
      "bufferView": 25,
      "componentType": 5126,
      "count": 72,
      "type": "VEC3"
    },
    {
      "bufferView": 26,
      "componentType": 5126,
      "count": 72,
      "type": "VEC2"
    },
    {
      "bufferView": 27,
      "componentType": 5126,
      "count": 144,
      "type": "VEC3",
      "min": [
        -9.84,
        0,
        -8.8
      ],
      "max": [
        9.84,
        2.34,
        4.1
      ]
    },
    {
      "bufferView": 28,
      "componentType": 5126,
      "count": 144,
      "type": "VEC3"
    },
    {
      "bufferView": 29,
      "componentType": 5126,
      "count": 144,
      "type": "VEC2"
    }
  ]
}
